<mxfile host="Electron" agent="Mozilla/5.0 (Macintosh; Intel Mac OS X 10_15_7) AppleWebKit/537.36 (KHTML, like Gecko) draw.io/28.2.8 Chrome/140.0.7339.240 Electron/38.4.0 Safari/537.36" version="28.2.8">
  <diagram name="Page-1" id="bbBjbwtMhfRov2YJA3aJ">
    <mxGraphModel dx="1505" dy="823" grid="1" gridSize="10" guides="1" tooltips="1" connect="1" arrows="1" fold="1" page="0" pageScale="1" pageWidth="850" pageHeight="1100" math="0" shadow="0">
      <root>
        <mxCell id="0" />
        <mxCell id="1" parent="0" />
        <mxCell id="lL4kKV-sXPRNhRO8UAC4-1" value="&lt;ul style=&quot;box-sizing: border-box; margin: 0px; padding: 0px 0px 0px 2rem; list-style: circle; color: rgb(33, 37, 41); font-family: SFProDisplay; font-size: 16px; font-style: normal; font-variant-ligatures: normal; font-variant-caps: normal; font-weight: 400; letter-spacing: normal; orphans: 2; text-align: start; text-indent: 0px; text-transform: none; widows: 2; word-spacing: 0px; -webkit-text-stroke-width: 0px; white-space: normal; background-color: rgb(255, 255, 255); text-decoration-thickness: initial; text-decoration-style: initial; text-decoration-color: initial; padding-inline-start: 48px;&quot;&gt;&lt;li dir=&quot;ltr&quot; aria-level=&quot;1&quot; style=&quot;box-sizing: border-box; margin: 0px; padding: 0px; background-color: transparent; color: rgb(0, 0, 0); font-family: Arial, sans-serif; font-size: 12pt; font-style: normal; font-variant: normal; font-weight: 400; list-style-type: disc; text-decoration: none; vertical-align: baseline; white-space: pre;&quot;&gt;&lt;span style=&quot;box-sizing: border-box; margin: 0px; padding: 0px; background-color: transparent; color: rgb(0, 0, 0); font-family: Arial, sans-serif; font-size: 12pt;&quot;&gt;&lt;span style=&quot;box-sizing: border-box; margin: 0px; padding: 0px; font-style: normal; font-variant: normal; text-decoration: none; vertical-align: baseline; white-space: pre-wrap;&quot;&gt;&lt;strong style=&quot;box-sizing: border-box; margin: 0px; padding: 0px; font-weight: bolder;&quot;&gt;Các actor (tác nhân) trong hệ thống:&lt;/strong&gt;&lt;/span&gt;&lt;/span&gt;&lt;ul style=&quot;box-sizing: border-box; margin: 0px; padding: 0px 0px 0px 2rem; list-style: circle; padding-inline-start: 48px;&quot;&gt;&lt;li dir=&quot;ltr&quot; aria-level=&quot;2&quot; style=&quot;box-sizing: border-box; margin: 0px; padding: 0px; background-color: transparent; color: rgb(0, 0, 0); font-family: Arial, sans-serif; font-size: 12pt; font-style: normal; font-variant: normal; font-weight: 400; list-style-type: circle; text-decoration: none; vertical-align: baseline; white-space: pre;&quot;&gt;&lt;span style=&quot;box-sizing: border-box; margin: 0px; padding: 0px; background-color: transparent; color: rgb(0, 0, 0); font-family: Arial, sans-serif; font-size: 12pt;&quot;&gt;&lt;span style=&quot;box-sizing: border-box; margin: 0px; padding: 0px; font-style: normal; font-variant: normal; text-decoration: none; vertical-align: baseline; white-space: pre-wrap;&quot;&gt;&lt;strong style=&quot;box-sizing: border-box; margin: 0px; padding: 0px; font-weight: bolder;&quot;&gt;Sinh viên:&lt;/strong&gt;&lt;/span&gt;&lt;span style=&quot;box-sizing: border-box; margin: 0px; padding: 0px; font-style: normal; font-variant: normal; font-weight: 400; text-decoration: none; vertical-align: baseline; white-space: pre-wrap;&quot;&gt; Là người tham gia đăng ký học các môn học trong hệ thống.&lt;/span&gt;&lt;/span&gt;&lt;/li&gt;&lt;li dir=&quot;ltr&quot; aria-level=&quot;2&quot; style=&quot;box-sizing: border-box; margin: 0px; padding: 0px; background-color: transparent; color: rgb(0, 0, 0); font-family: Arial, sans-serif; font-size: 12pt; font-style: normal; font-variant: normal; font-weight: 400; list-style-type: circle; text-decoration: none; vertical-align: baseline; white-space: pre;&quot;&gt;&lt;span style=&quot;box-sizing: border-box; margin: 0px; padding: 0px; background-color: transparent; color: rgb(0, 0, 0); font-family: Arial, sans-serif; font-size: 12pt;&quot;&gt;&lt;span style=&quot;box-sizing: border-box; margin: 0px; padding: 0px; font-style: normal; font-variant: normal; text-decoration: none; vertical-align: baseline; white-space: pre-wrap;&quot;&gt;&lt;strong style=&quot;box-sizing: border-box; margin: 0px; padding: 0px; font-weight: bolder;&quot;&gt;Giảng viên:&lt;/strong&gt;&lt;/span&gt;&lt;span style=&quot;box-sizing: border-box; margin: 0px; padding: 0px; font-style: normal; font-variant: normal; font-weight: 400; text-decoration: none; vertical-align: baseline; white-space: pre-wrap;&quot;&gt; Là người giảng dạy các môn học và quản lý các lớp học.&lt;/span&gt;&lt;/span&gt;&lt;/li&gt;&lt;li dir=&quot;ltr&quot; aria-level=&quot;2&quot; style=&quot;box-sizing: border-box; margin: 0px; padding: 0px; background-color: transparent; color: rgb(0, 0, 0); font-family: Arial, sans-serif; font-size: 12pt; font-style: normal; font-variant: normal; font-weight: 400; list-style-type: circle; text-decoration: none; vertical-align: baseline; white-space: pre;&quot;&gt;&lt;span style=&quot;box-sizing: border-box; margin: 0px; padding: 0px; background-color: transparent; color: rgb(0, 0, 0); font-family: Arial, sans-serif; font-size: 12pt;&quot;&gt;&lt;span style=&quot;box-sizing: border-box; margin: 0px; padding: 0px; font-style: normal; font-variant: normal; text-decoration: none; vertical-align: baseline; white-space: pre-wrap;&quot;&gt;&lt;strong style=&quot;box-sizing: border-box; margin: 0px; padding: 0px; font-weight: bolder;&quot;&gt;Phòng đào tạo:&lt;/strong&gt;&lt;/span&gt;&lt;span style=&quot;box-sizing: border-box; margin: 0px; padding: 0px; font-style: normal; font-variant: normal; font-weight: 400; text-decoration: none; vertical-align: baseline; white-space: pre-wrap;&quot;&gt; Là bộ phận quản lý tất cả các thông tin liên quan đến các môn học và lớp học.&lt;/span&gt;&lt;/span&gt;&lt;/li&gt;&lt;/ul&gt;&lt;/li&gt;&lt;li dir=&quot;ltr&quot; aria-level=&quot;1&quot; style=&quot;box-sizing: border-box; margin: 0px; padding: 0px; background-color: transparent; color: rgb(0, 0, 0); font-family: Arial, sans-serif; font-size: 12pt; font-style: normal; font-variant: normal; font-weight: 400; list-style-type: disc; text-decoration: none; vertical-align: baseline; white-space: pre;&quot;&gt;&lt;span style=&quot;box-sizing: border-box; margin: 0px; padding: 0px; background-color: transparent; color: rgb(0, 0, 0); font-family: Arial, sans-serif; font-size: 12pt;&quot;&gt;&lt;span style=&quot;box-sizing: border-box; margin: 0px; padding: 0px; font-style: normal; font-variant: normal; text-decoration: none; vertical-align: baseline; white-space: pre-wrap;&quot;&gt;&lt;strong style=&quot;box-sizing: border-box; margin: 0px; padding: 0px; font-weight: bolder;&quot;&gt;Các lớp trong hệ thống:&lt;/strong&gt;&lt;/span&gt;&lt;/span&gt;&lt;ul style=&quot;box-sizing: border-box; margin: 0px; padding: 0px 0px 0px 2rem; list-style: circle; padding-inline-start: 48px;&quot;&gt;&lt;li dir=&quot;ltr&quot; aria-level=&quot;2&quot; style=&quot;box-sizing: border-box; margin: 0px; padding: 0px; background-color: transparent; color: rgb(0, 0, 0); font-family: Arial, sans-serif; font-size: 12pt; font-style: normal; font-variant: normal; font-weight: 400; list-style-type: circle; text-decoration: none; vertical-align: baseline; white-space: pre;&quot;&gt;&lt;span style=&quot;box-sizing: border-box; margin: 0px; padding: 0px; background-color: transparent; color: rgb(0, 0, 0); font-family: Arial, sans-serif; font-size: 12pt;&quot;&gt;&lt;span style=&quot;box-sizing: border-box; margin: 0px; padding: 0px; font-style: normal; font-variant: normal; text-decoration: none; vertical-align: baseline; white-space: pre-wrap;&quot;&gt;&lt;strong style=&quot;box-sizing: border-box; margin: 0px; padding: 0px; font-weight: bolder;&quot;&gt;Lớp học (Class):&lt;/strong&gt;&lt;/span&gt;&lt;span style=&quot;box-sizing: border-box; margin: 0px; padding: 0px; font-style: normal; font-variant: normal; font-weight: 400; text-decoration: none; vertical-align: baseline; white-space: pre-wrap;&quot;&gt; Lớp học đại diện cho một buổi học của môn học, bao gồm thông tin về thời gian, giảng viên phụ trách, v.v.&lt;/span&gt;&lt;/span&gt;&lt;/li&gt;&lt;li dir=&quot;ltr&quot; aria-level=&quot;2&quot; style=&quot;box-sizing: border-box; margin: 0px; padding: 0px; background-color: transparent; color: rgb(0, 0, 0); font-family: Arial, sans-serif; font-size: 12pt; font-style: normal; font-variant: normal; font-weight: 400; list-style-type: circle; text-decoration: none; vertical-align: baseline; white-space: pre;&quot;&gt;&lt;span style=&quot;box-sizing: border-box; margin: 0px; padding: 0px; background-color: transparent; color: rgb(0, 0, 0); font-family: Arial, sans-serif; font-size: 12pt;&quot;&gt;&lt;span style=&quot;box-sizing: border-box; margin: 0px; padding: 0px; font-style: normal; font-variant: normal; text-decoration: none; vertical-align: baseline; white-space: pre-wrap;&quot;&gt;&lt;strong style=&quot;box-sizing: border-box; margin: 0px; padding: 0px; font-weight: bolder;&quot;&gt;Môn học (Subject):&lt;/strong&gt;&lt;/span&gt;&lt;span style=&quot;box-sizing: border-box; margin: 0px; padding: 0px; font-style: normal; font-variant: normal; font-weight: 400; text-decoration: none; vertical-align: baseline; white-space: pre-wrap;&quot;&gt; Môn học chứa thông tin về tên môn học, số tín chỉ, giảng viên phụ trách, v.v.&lt;/span&gt;&lt;/span&gt;&lt;/li&gt;&lt;li dir=&quot;ltr&quot; aria-level=&quot;2&quot; style=&quot;box-sizing: border-box; margin: 0px; padding: 0px; background-color: transparent; color: rgb(0, 0, 0); font-family: Arial, sans-serif; font-size: 12pt; font-style: normal; font-variant: normal; font-weight: 400; list-style-type: circle; text-decoration: none; vertical-align: baseline; white-space: pre;&quot;&gt;&lt;span style=&quot;box-sizing: border-box; margin: 0px; padding: 0px; background-color: transparent; color: rgb(0, 0, 0); font-family: Arial, sans-serif; font-size: 12pt;&quot;&gt;&lt;span style=&quot;box-sizing: border-box; margin: 0px; padding: 0px; font-style: normal; font-variant: normal; text-decoration: none; vertical-align: baseline; white-space: pre-wrap;&quot;&gt;&lt;strong style=&quot;box-sizing: border-box; margin: 0px; padding: 0px; font-weight: bolder;&quot;&gt;Phiếu đăng ký (Registration):&lt;/strong&gt;&lt;/span&gt;&lt;span style=&quot;box-sizing: border-box; margin: 0px; padding: 0px; font-style: normal; font-variant: normal; font-weight: 400; text-decoration: none; vertical-align: baseline; white-space: pre-wrap;&quot;&gt; Đại diện cho một phiếu đăng ký môn học của sinh viên, bao gồm thông tin về sinh viên, môn học, thời gian đăng ký, v.v.&lt;/span&gt;&lt;/span&gt;&lt;/li&gt;&lt;/ul&gt;&lt;/li&gt;&lt;/ul&gt;&lt;p dir=&quot;ltr&quot; style=&quot;box-sizing: border-box; margin: 6pt 0px; padding: 0px; color: rgb(0, 0, 0); font-family: SFProDisplay; font-size: 16px; font-style: normal; font-variant-ligatures: normal; font-variant-caps: normal; font-weight: 400; letter-spacing: normal; orphans: 2; text-align: start; text-indent: 0px; text-transform: none; widows: 2; word-spacing: 0px; -webkit-text-stroke-width: 0px; white-space: normal; background-color: rgb(255, 255, 255); text-decoration-thickness: initial; text-decoration-style: initial; text-decoration-color: initial; line-height: 1.8;&quot;&gt;&lt;span style=&quot;box-sizing: border-box; margin: 0px; padding: 0px; background-color: transparent; color: rgb(0, 0, 0); font-family: Arial, sans-serif; font-size: 12pt;&quot;&gt;&lt;span style=&quot;box-sizing: border-box; margin: 0px; padding: 0px; font-style: normal; font-variant: normal; text-decoration: none; vertical-align: baseline; white-space: pre-wrap;&quot;&gt;&lt;strong style=&quot;box-sizing: border-box; margin: 0px; padding: 0px; font-weight: bolder;&quot;&gt;Yêu cầu thiết kế mô hình lớp:&lt;/strong&gt;&lt;/span&gt;&lt;/span&gt;&lt;/p&gt;&lt;ul style=&quot;box-sizing: border-box; margin: 0px; padding: 0px 0px 0px 2rem; list-style: circle; color: rgb(33, 37, 41); font-family: SFProDisplay; font-size: 16px; font-style: normal; font-variant-ligatures: normal; font-variant-caps: normal; font-weight: 400; letter-spacing: normal; orphans: 2; text-align: start; text-indent: 0px; text-transform: none; widows: 2; word-spacing: 0px; -webkit-text-stroke-width: 0px; white-space: normal; background-color: rgb(255, 255, 255); text-decoration-thickness: initial; text-decoration-style: initial; text-decoration-color: initial; padding-inline-start: 48px;&quot;&gt;&lt;li dir=&quot;ltr&quot; aria-level=&quot;1&quot; style=&quot;box-sizing: border-box; margin: 0px; padding: 0px; background-color: transparent; color: rgb(0, 0, 0); font-family: Arial, sans-serif; font-size: 12pt; font-style: normal; font-variant: normal; font-weight: 400; list-style-type: disc; text-decoration: none; vertical-align: baseline; white-space: pre;&quot;&gt;&lt;span style=&quot;box-sizing: border-box; margin: 0px; padding: 0px; background-color: transparent; color: rgb(0, 0, 0); font-family: Arial, sans-serif; font-size: 12pt;&quot;&gt;&lt;span style=&quot;box-sizing: border-box; margin: 0px; padding: 0px; font-style: normal; font-variant: normal; text-decoration: none; vertical-align: baseline; white-space: pre-wrap;&quot;&gt;&lt;strong style=&quot;box-sizing: border-box; margin: 0px; padding: 0px; font-weight: bolder;&quot;&gt;Quan hệ kế thừa:&lt;/strong&gt;&lt;/span&gt;&lt;/span&gt;&lt;ul style=&quot;box-sizing: border-box; margin: 0px; padding: 0px 0px 0px 2rem; list-style: circle; padding-inline-start: 48px;&quot;&gt;&lt;li dir=&quot;ltr&quot; aria-level=&quot;2&quot; style=&quot;box-sizing: border-box; margin: 0px; padding: 0px; background-color: transparent; color: rgb(0, 0, 0); font-family: Arial, sans-serif; font-size: 12pt; font-style: normal; font-variant: normal; font-weight: 400; list-style-type: circle; text-decoration: none; vertical-align: baseline; white-space: pre;&quot;&gt;&lt;span style=&quot;box-sizing: border-box; margin: 0px; padding: 0px; background-color: transparent; color: rgb(0, 0, 0); font-family: Arial, sans-serif; font-size: 12pt;&quot;&gt;&lt;span style=&quot;box-sizing: border-box; margin: 0px; padding: 0px; font-style: normal; font-variant: normal; font-weight: 400; text-decoration: none; vertical-align: baseline; white-space: pre-wrap;&quot;&gt;Lớp&amp;nbsp;&lt;/span&gt;&lt;span style=&quot;box-sizing: border-box; margin: 0px; padding: 0px; font-style: normal; font-variant: normal; text-decoration: none; vertical-align: baseline; white-space: pre-wrap;&quot;&gt;&lt;strong style=&quot;box-sizing: border-box; margin: 0px; padding: 0px; font-weight: bolder;&quot;&gt;Giảng viên&lt;/strong&gt;&lt;/span&gt;&lt;span style=&quot;box-sizing: border-box; margin: 0px; padding: 0px; font-style: normal; font-variant: normal; font-weight: 400; text-decoration: none; vertical-align: baseline; white-space: pre-wrap;&quot;&gt; và&amp;nbsp;&lt;/span&gt;&lt;span style=&quot;box-sizing: border-box; margin: 0px; padding: 0px; font-style: normal; font-variant: normal; text-decoration: none; vertical-align: baseline; white-space: pre-wrap;&quot;&gt;&lt;strong style=&quot;box-sizing: border-box; margin: 0px; padding: 0px; font-weight: bolder;&quot;&gt;Sinh viên&lt;/strong&gt;&lt;/span&gt;&lt;span style=&quot;box-sizing: border-box; margin: 0px; padding: 0px; font-style: normal; font-variant: normal; font-weight: 400; text-decoration: none; vertical-align: baseline; white-space: pre-wrap;&quot;&gt; đều phải kế thừa từ lớp cơ sở&amp;nbsp;&lt;/span&gt;&lt;span style=&quot;box-sizing: border-box; margin: 0px; padding: 0px; font-style: normal; font-variant: normal; text-decoration: none; vertical-align: baseline; white-space: pre-wrap;&quot;&gt;&lt;strong style=&quot;box-sizing: border-box; margin: 0px; padding: 0px; font-weight: bolder;&quot;&gt;Người dùng (User)&lt;/strong&gt;&lt;/span&gt;&lt;span style=&quot;box-sizing: border-box; margin: 0px; padding: 0px; font-style: normal; font-variant: normal; font-weight: 400; text-decoration: none; vertical-align: baseline; white-space: pre-wrap;&quot;&gt;.&lt;/span&gt;&lt;/span&gt;&lt;/li&gt;&lt;li dir=&quot;ltr&quot; aria-level=&quot;2&quot; style=&quot;box-sizing: border-box; margin: 0px; padding: 0px; background-color: transparent; color: rgb(0, 0, 0); font-family: Arial, sans-serif; font-size: 12pt; font-style: normal; font-variant: normal; font-weight: 400; list-style-type: circle; text-decoration: none; vertical-align: baseline; white-space: pre;&quot;&gt;&lt;span style=&quot;box-sizing: border-box; margin: 0px; padding: 0px; background-color: transparent; color: rgb(0, 0, 0); font-family: Arial, sans-serif; font-size: 12pt;&quot;&gt;&lt;span style=&quot;box-sizing: border-box; margin: 0px; padding: 0px; font-style: normal; font-variant: normal; font-weight: 400; text-decoration: none; vertical-align: baseline; white-space: pre-wrap;&quot;&gt;Lớp&amp;nbsp;&lt;/span&gt;&lt;span style=&quot;box-sizing: border-box; margin: 0px; padding: 0px; font-style: normal; font-variant: normal; text-decoration: none; vertical-align: baseline; white-space: pre-wrap;&quot;&gt;&lt;strong style=&quot;box-sizing: border-box; margin: 0px; padding: 0px; font-weight: bolder;&quot;&gt;Người dùng (User)&lt;/strong&gt;&lt;/span&gt;&lt;span style=&quot;box-sizing: border-box; margin: 0px; padding: 0px; font-style: normal; font-variant: normal; font-weight: 400; text-decoration: none; vertical-align: baseline; white-space: pre-wrap;&quot;&gt; chứa các thuộc tính chung như tên, email, mật khẩu.&lt;/span&gt;&lt;/span&gt;&lt;/li&gt;&lt;/ul&gt;&lt;/li&gt;&lt;li dir=&quot;ltr&quot; aria-level=&quot;1&quot; style=&quot;box-sizing: border-box; margin: 0px; padding: 0px; background-color: transparent; color: rgb(0, 0, 0); font-family: Arial, sans-serif; font-size: 12pt; font-style: normal; font-variant: normal; font-weight: 400; list-style-type: disc; text-decoration: none; vertical-align: baseline; white-space: pre;&quot;&gt;&lt;span style=&quot;box-sizing: border-box; margin: 0px; padding: 0px; background-color: transparent; color: rgb(0, 0, 0); font-family: Arial, sans-serif; font-size: 12pt;&quot;&gt;&lt;span style=&quot;box-sizing: border-box; margin: 0px; padding: 0px; font-style: normal; font-variant: normal; text-decoration: none; vertical-align: baseline; white-space: pre-wrap;&quot;&gt;&lt;strong style=&quot;box-sizing: border-box; margin: 0px; padding: 0px; font-weight: bolder;&quot;&gt;Quan hệ giữa các lớp:&lt;/strong&gt;&lt;/span&gt;&lt;/span&gt;&lt;ul style=&quot;box-sizing: border-box; margin: 0px; padding: 0px 0px 0px 2rem; list-style: circle; padding-inline-start: 48px;&quot;&gt;&lt;li dir=&quot;ltr&quot; aria-level=&quot;2&quot; style=&quot;box-sizing: border-box; margin: 0px; padding: 0px; background-color: transparent; color: rgb(0, 0, 0); font-family: Arial, sans-serif; font-size: 12pt; font-style: normal; font-variant: normal; font-weight: 400; list-style-type: circle; text-decoration: none; vertical-align: baseline; white-space: pre;&quot;&gt;&lt;span style=&quot;box-sizing: border-box; margin: 0px; padding: 0px; background-color: transparent; color: rgb(0, 0, 0); font-family: Arial, sans-serif; font-size: 12pt;&quot;&gt;&lt;span style=&quot;box-sizing: border-box; margin: 0px; padding: 0px; font-style: normal; font-variant: normal; text-decoration: none; vertical-align: baseline; white-space: pre-wrap;&quot;&gt;&lt;strong style=&quot;box-sizing: border-box; margin: 0px; padding: 0px; font-weight: bolder;&quot;&gt;Môn học&lt;/strong&gt;&lt;/span&gt;&lt;span style=&quot;box-sizing: border-box; margin: 0px; padding: 0px; font-style: normal; font-variant: normal; font-weight: 400; text-decoration: none; vertical-align: baseline; white-space: pre-wrap;&quot;&gt; và&amp;nbsp;&lt;/span&gt;&lt;span style=&quot;box-sizing: border-box; margin: 0px; padding: 0px; font-style: normal; font-variant: normal; text-decoration: none; vertical-align: baseline; white-space: pre-wrap;&quot;&gt;&lt;strong style=&quot;box-sizing: border-box; margin: 0px; padding: 0px; font-weight: bolder;&quot;&gt;Lớp học&lt;/strong&gt;&lt;/span&gt;&lt;span style=&quot;box-sizing: border-box; margin: 0px; padding: 0px; font-style: normal; font-variant: normal; font-weight: 400; text-decoration: none; vertical-align: baseline; white-space: pre-wrap;&quot;&gt; có quan hệ&amp;nbsp;&lt;/span&gt;&lt;span style=&quot;box-sizing: border-box; margin: 0px; padding: 0px; font-style: normal; font-variant: normal; text-decoration: none; vertical-align: baseline; white-space: pre-wrap;&quot;&gt;&lt;strong style=&quot;box-sizing: border-box; margin: 0px; padding: 0px; font-weight: bolder;&quot;&gt;…&lt;/strong&gt;&lt;/span&gt;&lt;/span&gt;&lt;/li&gt;&lt;li dir=&quot;ltr&quot; aria-level=&quot;2&quot; style=&quot;box-sizing: border-box; margin: 0px; padding: 0px; background-color: transparent; color: rgb(0, 0, 0); font-family: Arial, sans-serif; font-size: 12pt; font-style: normal; font-variant: normal; font-weight: 400; list-style-type: circle; text-decoration: none; vertical-align: baseline; white-space: pre;&quot;&gt;&lt;span style=&quot;box-sizing: border-box; margin: 0px; padding: 0px; background-color: transparent; color: rgb(0, 0, 0); font-family: Arial, sans-serif; font-size: 12pt;&quot;&gt;&lt;span style=&quot;box-sizing: border-box; margin: 0px; padding: 0px; font-style: normal; font-variant: normal; text-decoration: none; vertical-align: baseline; white-space: pre-wrap;&quot;&gt;&lt;strong style=&quot;box-sizing: border-box; margin: 0px; padding: 0px; font-weight: bolder;&quot;&gt;Sinh viên&lt;/strong&gt;&lt;/span&gt;&lt;span style=&quot;box-sizing: border-box; margin: 0px; padding: 0px; font-style: normal; font-variant: normal; font-weight: 400; text-decoration: none; vertical-align: baseline; white-space: pre-wrap;&quot;&gt; và&amp;nbsp;&lt;/span&gt;&lt;span style=&quot;box-sizing: border-box; margin: 0px; padding: 0px; font-style: normal; font-variant: normal; text-decoration: none; vertical-align: baseline; white-space: pre-wrap;&quot;&gt;&lt;strong style=&quot;box-sizing: border-box; margin: 0px; padding: 0px; font-weight: bolder;&quot;&gt;Phiếu đăng ký&lt;/strong&gt;&lt;/span&gt;&lt;span style=&quot;box-sizing: border-box; margin: 0px; padding: 0px; font-style: normal; font-variant: normal; font-weight: 400; text-decoration: none; vertical-align: baseline; white-space: pre-wrap;&quot;&gt; có quan hệ&amp;nbsp;&lt;/span&gt;&lt;span style=&quot;box-sizing: border-box; margin: 0px; padding: 0px; font-style: normal; font-variant: normal; text-decoration: none; vertical-align: baseline; white-space: pre-wrap;&quot;&gt;&lt;strong style=&quot;box-sizing: border-box; margin: 0px; padding: 0px; font-weight: bolder;&quot;&gt;…&lt;/strong&gt;&lt;/span&gt;&lt;span style=&quot;box-sizing: border-box; margin: 0px; padding: 0px; font-style: normal; font-variant: normal; font-weight: 400; text-decoration: none; vertical-align: baseline; white-space: pre-wrap;&quot;&gt;:&amp;nbsp;&lt;/span&gt;&lt;/span&gt;&lt;/li&gt;&lt;/ul&gt;&lt;/li&gt;&lt;/ul&gt;" style="text;whiteSpace=wrap;html=1;" parent="1" vertex="1">
          <mxGeometry x="-70" y="40" width="560" height="530" as="geometry" />
        </mxCell>
        <mxCell id="hnro4UafbXojgg0vQ1DD-1" style="edgeStyle=orthogonalEdgeStyle;rounded=0;orthogonalLoop=1;jettySize=auto;html=1;entryX=0;entryY=0.5;entryDx=0;entryDy=0;endArrow=block;endFill=0;" edge="1" parent="1" source="lL4kKV-sXPRNhRO8UAC4-2" target="lL4kKV-sXPRNhRO8UAC4-7">
          <mxGeometry relative="1" as="geometry" />
        </mxCell>
        <mxCell id="hnro4UafbXojgg0vQ1DD-3" value="Extend" style="edgeLabel;html=1;align=center;verticalAlign=middle;resizable=0;points=[];" vertex="1" connectable="0" parent="hnro4UafbXojgg0vQ1DD-1">
          <mxGeometry x="-0.177" y="-1" relative="1" as="geometry">
            <mxPoint as="offset" />
          </mxGeometry>
        </mxCell>
        <mxCell id="lL4kKV-sXPRNhRO8UAC4-2" value="teacher" style="swimlane;fontStyle=1;align=center;verticalAlign=top;childLayout=stackLayout;horizontal=1;startSize=26;horizontalStack=0;resizeParent=1;resizeParentMax=0;resizeLast=0;collapsible=1;marginBottom=0;whiteSpace=wrap;html=1;" parent="1" vertex="1">
          <mxGeometry x="-100" y="733" width="160" height="106" as="geometry" />
        </mxCell>
        <mxCell id="lL4kKV-sXPRNhRO8UAC4-4" value="" style="line;strokeWidth=1;fillColor=none;align=left;verticalAlign=middle;spacingTop=-1;spacingLeft=3;spacingRight=3;rotatable=0;labelPosition=right;points=[];portConstraint=eastwest;strokeColor=inherit;" parent="lL4kKV-sXPRNhRO8UAC4-2" vertex="1">
          <mxGeometry y="26" width="160" height="54" as="geometry" />
        </mxCell>
        <mxCell id="lL4kKV-sXPRNhRO8UAC4-5" value="+ method(type): type" style="text;strokeColor=none;fillColor=none;align=left;verticalAlign=top;spacingLeft=4;spacingRight=4;overflow=hidden;rotatable=0;points=[[0,0.5],[1,0.5]];portConstraint=eastwest;whiteSpace=wrap;html=1;" parent="lL4kKV-sXPRNhRO8UAC4-2" vertex="1">
          <mxGeometry y="80" width="160" height="26" as="geometry" />
        </mxCell>
        <mxCell id="lL4kKV-sXPRNhRO8UAC4-6" value="user" style="swimlane;fontStyle=1;align=center;verticalAlign=top;childLayout=stackLayout;horizontal=1;startSize=26;horizontalStack=0;resizeParent=1;resizeParentMax=0;resizeLast=0;collapsible=1;marginBottom=0;whiteSpace=wrap;html=1;" parent="1" vertex="1">
          <mxGeometry x="70" y="546" width="160" height="144" as="geometry" />
        </mxCell>
        <mxCell id="lL4kKV-sXPRNhRO8UAC4-7" value="-id:int&lt;br&gt;-name:string&lt;div&gt;-email:string&lt;/div&gt;&lt;div&gt;-password:string&lt;/div&gt;" style="text;strokeColor=none;fillColor=none;align=left;verticalAlign=top;spacingLeft=4;spacingRight=4;overflow=hidden;rotatable=0;points=[[0,0.5],[1,0.5]];portConstraint=eastwest;whiteSpace=wrap;html=1;" parent="lL4kKV-sXPRNhRO8UAC4-6" vertex="1">
          <mxGeometry y="26" width="160" height="84" as="geometry" />
        </mxCell>
        <mxCell id="lL4kKV-sXPRNhRO8UAC4-8" value="" style="line;strokeWidth=1;fillColor=none;align=left;verticalAlign=middle;spacingTop=-1;spacingLeft=3;spacingRight=3;rotatable=0;labelPosition=right;points=[];portConstraint=eastwest;strokeColor=inherit;" parent="lL4kKV-sXPRNhRO8UAC4-6" vertex="1">
          <mxGeometry y="110" width="160" height="8" as="geometry" />
        </mxCell>
        <mxCell id="lL4kKV-sXPRNhRO8UAC4-9" value="+ method(type): type" style="text;strokeColor=none;fillColor=none;align=left;verticalAlign=top;spacingLeft=4;spacingRight=4;overflow=hidden;rotatable=0;points=[[0,0.5],[1,0.5]];portConstraint=eastwest;whiteSpace=wrap;html=1;" parent="lL4kKV-sXPRNhRO8UAC4-6" vertex="1">
          <mxGeometry y="118" width="160" height="26" as="geometry" />
        </mxCell>
        <mxCell id="hnro4UafbXojgg0vQ1DD-2" style="edgeStyle=orthogonalEdgeStyle;rounded=0;orthogonalLoop=1;jettySize=auto;html=1;entryX=1;entryY=0.5;entryDx=0;entryDy=0;endArrow=block;endFill=0;" edge="1" parent="1" source="lL4kKV-sXPRNhRO8UAC4-10" target="lL4kKV-sXPRNhRO8UAC4-7">
          <mxGeometry relative="1" as="geometry" />
        </mxCell>
        <mxCell id="lL4kKV-sXPRNhRO8UAC4-10" value="student" style="swimlane;fontStyle=1;align=center;verticalAlign=top;childLayout=stackLayout;horizontal=1;startSize=26;horizontalStack=0;resizeParent=1;resizeParentMax=0;resizeLast=0;collapsible=1;marginBottom=0;whiteSpace=wrap;html=1;" parent="1" vertex="1">
          <mxGeometry x="220" y="720" width="160" height="86" as="geometry" />
        </mxCell>
        <mxCell id="lL4kKV-sXPRNhRO8UAC4-11" value="+ field: type" style="text;strokeColor=none;fillColor=none;align=left;verticalAlign=top;spacingLeft=4;spacingRight=4;overflow=hidden;rotatable=0;points=[[0,0.5],[1,0.5]];portConstraint=eastwest;whiteSpace=wrap;html=1;" parent="lL4kKV-sXPRNhRO8UAC4-10" vertex="1">
          <mxGeometry y="26" width="160" height="26" as="geometry" />
        </mxCell>
        <mxCell id="lL4kKV-sXPRNhRO8UAC4-12" value="" style="line;strokeWidth=1;fillColor=none;align=left;verticalAlign=middle;spacingTop=-1;spacingLeft=3;spacingRight=3;rotatable=0;labelPosition=right;points=[];portConstraint=eastwest;strokeColor=inherit;" parent="lL4kKV-sXPRNhRO8UAC4-10" vertex="1">
          <mxGeometry y="52" width="160" height="8" as="geometry" />
        </mxCell>
        <mxCell id="lL4kKV-sXPRNhRO8UAC4-13" value="+ method(type): type" style="text;strokeColor=none;fillColor=none;align=left;verticalAlign=top;spacingLeft=4;spacingRight=4;overflow=hidden;rotatable=0;points=[[0,0.5],[1,0.5]];portConstraint=eastwest;whiteSpace=wrap;html=1;" parent="lL4kKV-sXPRNhRO8UAC4-10" vertex="1">
          <mxGeometry y="60" width="160" height="26" as="geometry" />
        </mxCell>
        <mxCell id="lL4kKV-sXPRNhRO8UAC4-14" value="class" style="swimlane;fontStyle=1;align=center;verticalAlign=top;childLayout=stackLayout;horizontal=1;startSize=26;horizontalStack=0;resizeParent=1;resizeParentMax=0;resizeLast=0;collapsible=1;marginBottom=0;whiteSpace=wrap;html=1;" parent="1" vertex="1">
          <mxGeometry x="470" y="634" width="160" height="134" as="geometry" />
        </mxCell>
        <mxCell id="hnro4UafbXojgg0vQ1DD-5" style="edgeStyle=orthogonalEdgeStyle;rounded=0;orthogonalLoop=1;jettySize=auto;html=1;endArrow=none;endFill=0;" edge="1" parent="lL4kKV-sXPRNhRO8UAC4-14" source="lL4kKV-sXPRNhRO8UAC4-15">
          <mxGeometry relative="1" as="geometry">
            <mxPoint x="270" y="63" as="targetPoint" />
          </mxGeometry>
        </mxCell>
        <mxCell id="lL4kKV-sXPRNhRO8UAC4-15" value="id:int&lt;div&gt;name:string&lt;/div&gt;" style="text;strokeColor=none;fillColor=none;align=left;verticalAlign=top;spacingLeft=4;spacingRight=4;overflow=hidden;rotatable=0;points=[[0,0.5],[1,0.5]];portConstraint=eastwest;whiteSpace=wrap;html=1;" parent="lL4kKV-sXPRNhRO8UAC4-14" vertex="1">
          <mxGeometry y="26" width="160" height="74" as="geometry" />
        </mxCell>
        <mxCell id="lL4kKV-sXPRNhRO8UAC4-16" value="" style="line;strokeWidth=1;fillColor=none;align=left;verticalAlign=middle;spacingTop=-1;spacingLeft=3;spacingRight=3;rotatable=0;labelPosition=right;points=[];portConstraint=eastwest;strokeColor=inherit;" parent="lL4kKV-sXPRNhRO8UAC4-14" vertex="1">
          <mxGeometry y="100" width="160" height="8" as="geometry" />
        </mxCell>
        <mxCell id="lL4kKV-sXPRNhRO8UAC4-17" value="+ method(type): type" style="text;strokeColor=none;fillColor=none;align=left;verticalAlign=top;spacingLeft=4;spacingRight=4;overflow=hidden;rotatable=0;points=[[0,0.5],[1,0.5]];portConstraint=eastwest;whiteSpace=wrap;html=1;" parent="lL4kKV-sXPRNhRO8UAC4-14" vertex="1">
          <mxGeometry y="108" width="160" height="26" as="geometry" />
        </mxCell>
        <mxCell id="lL4kKV-sXPRNhRO8UAC4-18" value="course" style="swimlane;fontStyle=1;align=center;verticalAlign=top;childLayout=stackLayout;horizontal=1;startSize=26;horizontalStack=0;resizeParent=1;resizeParentMax=0;resizeLast=0;collapsible=1;marginBottom=0;whiteSpace=wrap;html=1;" parent="1" vertex="1">
          <mxGeometry x="740" y="634" width="160" height="114" as="geometry" />
        </mxCell>
        <mxCell id="lL4kKV-sXPRNhRO8UAC4-19" value="&lt;meta charset=&quot;utf-8&quot;&gt;&lt;span style=&quot;color: rgb(255, 255, 255); font-family: Helvetica; font-size: 12px; font-style: normal; font-variant-ligatures: normal; font-variant-caps: normal; font-weight: 400; letter-spacing: normal; orphans: 2; text-align: left; text-indent: 0px; text-transform: none; widows: 2; word-spacing: 0px; -webkit-text-stroke-width: 0px; white-space: normal; background-color: rgb(27, 29, 30); text-decoration-thickness: initial; text-decoration-style: initial; text-decoration-color: initial; display: inline !important; float: none;&quot;&gt;id:int&lt;/span&gt;&lt;div style=&quot;forced-color-adjust: none; box-shadow: none !important; color: rgb(255, 255, 255); font-family: Helvetica; font-size: 12px; font-style: normal; font-variant-ligatures: normal; font-variant-caps: normal; font-weight: 400; letter-spacing: normal; orphans: 2; text-align: left; text-indent: 0px; text-transform: none; widows: 2; word-spacing: 0px; -webkit-text-stroke-width: 0px; white-space: normal; background-color: rgb(27, 29, 30); text-decoration-thickness: initial; text-decoration-style: initial; text-decoration-color: initial;&quot;&gt;name:string&lt;/div&gt;" style="text;strokeColor=none;fillColor=none;align=left;verticalAlign=top;spacingLeft=4;spacingRight=4;overflow=hidden;rotatable=0;points=[[0,0.5],[1,0.5]];portConstraint=eastwest;whiteSpace=wrap;html=1;" parent="lL4kKV-sXPRNhRO8UAC4-18" vertex="1">
          <mxGeometry y="26" width="160" height="54" as="geometry" />
        </mxCell>
        <mxCell id="lL4kKV-sXPRNhRO8UAC4-20" value="" style="line;strokeWidth=1;fillColor=none;align=left;verticalAlign=middle;spacingTop=-1;spacingLeft=3;spacingRight=3;rotatable=0;labelPosition=right;points=[];portConstraint=eastwest;strokeColor=inherit;" parent="lL4kKV-sXPRNhRO8UAC4-18" vertex="1">
          <mxGeometry y="80" width="160" height="8" as="geometry" />
        </mxCell>
        <mxCell id="lL4kKV-sXPRNhRO8UAC4-21" value="+ method(type): type" style="text;strokeColor=none;fillColor=none;align=left;verticalAlign=top;spacingLeft=4;spacingRight=4;overflow=hidden;rotatable=0;points=[[0,0.5],[1,0.5]];portConstraint=eastwest;whiteSpace=wrap;html=1;" parent="lL4kKV-sXPRNhRO8UAC4-18" vertex="1">
          <mxGeometry y="88" width="160" height="26" as="geometry" />
        </mxCell>
        <mxCell id="lL4kKV-sXPRNhRO8UAC4-22" value="registration" style="swimlane;fontStyle=1;align=center;verticalAlign=top;childLayout=stackLayout;horizontal=1;startSize=26;horizontalStack=0;resizeParent=1;resizeParentMax=0;resizeLast=0;collapsible=1;marginBottom=0;whiteSpace=wrap;html=1;" parent="1" vertex="1">
          <mxGeometry x="120" y="950" width="160" height="86" as="geometry" />
        </mxCell>
        <mxCell id="lL4kKV-sXPRNhRO8UAC4-23" value="+ field: type" style="text;strokeColor=none;fillColor=none;align=left;verticalAlign=top;spacingLeft=4;spacingRight=4;overflow=hidden;rotatable=0;points=[[0,0.5],[1,0.5]];portConstraint=eastwest;whiteSpace=wrap;html=1;" parent="lL4kKV-sXPRNhRO8UAC4-22" vertex="1">
          <mxGeometry y="26" width="160" height="26" as="geometry" />
        </mxCell>
        <mxCell id="lL4kKV-sXPRNhRO8UAC4-24" value="" style="line;strokeWidth=1;fillColor=none;align=left;verticalAlign=middle;spacingTop=-1;spacingLeft=3;spacingRight=3;rotatable=0;labelPosition=right;points=[];portConstraint=eastwest;strokeColor=inherit;" parent="lL4kKV-sXPRNhRO8UAC4-22" vertex="1">
          <mxGeometry y="52" width="160" height="8" as="geometry" />
        </mxCell>
        <mxCell id="lL4kKV-sXPRNhRO8UAC4-25" value="+ method(type): type" style="text;strokeColor=none;fillColor=none;align=left;verticalAlign=top;spacingLeft=4;spacingRight=4;overflow=hidden;rotatable=0;points=[[0,0.5],[1,0.5]];portConstraint=eastwest;whiteSpace=wrap;html=1;" parent="lL4kKV-sXPRNhRO8UAC4-22" vertex="1">
          <mxGeometry y="60" width="160" height="26" as="geometry" />
        </mxCell>
        <mxCell id="hnro4UafbXojgg0vQ1DD-4" value="Extend" style="edgeLabel;html=1;align=center;verticalAlign=middle;resizable=0;points=[];" vertex="1" connectable="0" parent="1">
          <mxGeometry x="210" y="640" as="geometry">
            <mxPoint x="88" y="10" as="offset" />
          </mxGeometry>
        </mxCell>
        <mxCell id="hnro4UafbXojgg0vQ1DD-6" value="*" style="text;html=1;whiteSpace=wrap;strokeColor=none;fillColor=none;align=center;verticalAlign=middle;rounded=0;" vertex="1" parent="1">
          <mxGeometry x="700" y="670" width="60" height="30" as="geometry" />
        </mxCell>
        <mxCell id="hnro4UafbXojgg0vQ1DD-7" value="1" style="text;html=1;whiteSpace=wrap;strokeColor=none;fillColor=none;align=center;verticalAlign=middle;rounded=0;" vertex="1" parent="1">
          <mxGeometry x="610" y="670" width="60" height="30" as="geometry" />
        </mxCell>
        <mxCell id="hnro4UafbXojgg0vQ1DD-8" style="edgeStyle=orthogonalEdgeStyle;rounded=0;orthogonalLoop=1;jettySize=auto;html=1;endArrow=diamond;endFill=1;" edge="1" parent="1" source="lL4kKV-sXPRNhRO8UAC4-13" target="lL4kKV-sXPRNhRO8UAC4-22">
          <mxGeometry relative="1" as="geometry" />
        </mxCell>
      </root>
    </mxGraphModel>
  </diagram>
</mxfile>
